<?xml version="1.0" standalone="no"?>
<!DOCTYPE svg PUBLIC "-//W3C//DTD SVG 20010904//EN"
 "http://www.w3.org/TR/2001/REC-SVG-20010904/DTD/svg10.dtd">
<svg version="1.0" xmlns="http://www.w3.org/2000/svg"
 width="800.000000pt" height="800.000000pt" viewBox="0 0 800.000000 800.000000"
 preserveAspectRatio="xMidYMid meet">
<metadata>
Created by potrace 1.14, written by Peter Selinger 2001-2017
</metadata>
<g transform="translate(0.000000,800.000000) scale(0.100000,-0.100000)"
fill="#000000" stroke="none">
<path d="M388 7623 c6 -10 114 -259 242 -553 128 -294 235 -538 239 -543 6 -6
481 1085 481 1106 0 4 -21 7 -46 5 l-47 -3 -160 -362 c-89 -200 -164 -363
-167 -363 -3 0 -76 164 -164 365 l-159 365 -114 0 c-105 0 -113 -1 -105 -17z"/>
<path d="M1456 7625 c4 -8 17 -15 30 -15 28 0 92 -54 105 -88 8 -20 -22 -112
-157 -496 -92 -259 -169 -477 -172 -484 -3 -10 7 -12 44 -10 l49 3 35 100 35
100 223 0 224 0 37 -100 36 -100 108 -3 c59 -1 107 0 107 2 0 3 -74 211 -164
463 -90 252 -178 500 -196 551 l-33 92 -158 0 c-137 0 -158 -2 -153 -15z m290
-533 l91 -257 -185 -3 c-102 -1 -186 -1 -188 0 -5 5 178 518 185 518 3 0 47
-116 97 -258z"/>
<path d="M2150 7631 c0 -5 14 -12 30 -16 40 -9 89 -51 106 -92 11 -26 14 -130
14 -513 l0 -480 315 0 315 0 0 45 0 45 -210 0 -210 0 0 510 0 510 -180 0
c-103 0 -180 -4 -180 -9z"/>
<path d="M2843 7628 c53 -137 483 -1106 488 -1101 5 6 360 828 466 1081 l13
32 -48 0 -48 0 -161 -362 c-88 -200 -164 -363 -168 -363 -4 0 -53 106 -110
235 -56 129 -126 291 -156 360 l-55 125 -113 3 c-89 2 -112 0 -108 -10z"/>
<path d="M3900 7630 c0 -5 5 -10 12 -10 31 0 99 -44 120 -78 l23 -37 3 -488 3
-487 327 2 327 3 3 43 3 42 -230 0 -231 0 0 275 0 275 180 0 180 0 0 40 0 40
-180 0 -180 0 0 155 0 155 230 0 230 0 0 40 0 40 -410 0 c-267 0 -410 -3 -410
-10z"/>
<path d="M4800 7631 c0 -5 14 -12 30 -16 34 -7 84 -46 103 -79 9 -15 13 -150
17 -511 l5 -490 97 -3 98 -3 2 243 3 243 42 3 c49 4 29 25 233 -258 78 -107
149 -203 159 -213 15 -15 32 -17 125 -15 l108 3 -187 253 c-103 139 -186 254
-184 255 2 2 21 11 43 20 62 29 101 63 132 119 27 49 29 61 29 153 0 92 -2
104 -29 153 -33 60 -76 96 -150 126 -47 19 -74 21 -363 24 -201 2 -313 0 -313
-7z m523 -82 c97 -27 155 -129 144 -255 -6 -85 -39 -142 -97 -172 -38 -19 -58
-22 -130 -20 l-85 3 -3 215 c-1 118 0 220 2 227 7 16 115 17 169 2z"/>
<path d="M5770 7631 c0 -5 14 -12 30 -16 40 -9 89 -51 106 -92 11 -26 14 -130
14 -514 l0 -481 238 5 c260 5 306 13 422 69 123 60 216 181 251 328 18 79 16
251 -5 330 -38 146 -120 252 -244 314 -120 61 -159 66 -504 66 -181 0 -308 -4
-308 -9z m592 -101 c70 -26 154 -100 190 -167 46 -84 62 -158 62 -278 0 -181
-51 -306 -158 -386 -63 -47 -130 -69 -238 -76 l-88 -6 0 473 0 473 88 -5 c54
-4 109 -14 144 -28z"/>
<path d="M6810 7632 c0 -4 19 -14 42 -22 25 -9 54 -30 72 -53 l31 -39 3 -494
3 -494 329 0 330 0 0 45 0 45 -227 2 -228 3 0 270 0 270 178 3 177 2 0 40 0
40 -177 2 -178 3 0 150 0 150 228 3 227 2 0 40 0 40 -405 0 c-223 0 -405 -4
-405 -8z"/>
<path d="M1414 5887 c-3 -8 -4 -43 -2 -78 l3 -64 65 -7 c96 -9 185 -35 273
-79 114 -57 162 -92 257 -189 121 -122 193 -256 237 -440 14 -57 17 -236 23
-1435 4 -753 8 -1790 9 -2302 l1 -933 435 0 435 0 -2 2768 -3 2767 -863 3
c-720 2 -863 0 -868 -11z m1346 -4987 c45 -23 67 -54 48 -67 -13 -8 -16 -9
-40 -12 -8 -2 -6 -5 4 -9 10 -4 -17 -7 -60 -6 -66 0 -77 3 -80 18 -3 11 0 16
7 12 6 -4 19 -3 29 3 11 6 24 6 33 0 11 -7 8 -9 -11 -9 -14 0 -31 -4 -39 -9
-14 -9 63 -5 109 6 14 4 28 6 33 5 11 -3 9 36 -3 43 -5 3 -10 1 -10 -4 0 -19
-17 -12 -23 9 -6 25 -37 27 -38 3 -1 -17 -2 -17 -6 0 -6 24 -30 21 -44 -4 -8
-16 -13 -18 -19 -9 -6 9 -11 7 -20 -10 -13 -24 -24 -22 -14 4 6 14 75 55 97
56 4 0 25 -9 47 -20z m-15 -60 c3 -5 -1 -10 -10 -10 -9 0 -13 5 -10 10 3 6 8
10 10 10 2 0 7 -4 10 -10z m53 -67 c53 -39 74 -83 70 -141 -10 -114 -109 -177
-214 -137 -53 20 -90 69 -99 130 -8 56 26 122 80 153 49 28 122 26 163 -5z"/>
<path d="M2654 771 c-103 -47 -113 -199 -16 -255 98 -56 217 11 217 124 0 106
-105 174 -201 131z m12 -30 c15 -15 80 -16 98 -2 24 20 45 6 68 -45 17 -40 19
-53 9 -83 -6 -20 -24 -50 -40 -65 -26 -25 -33 -27 -46 -16 -14 12 -13 16 12
36 28 24 28 24 6 30 -22 6 -34 44 -14 44 12 0 41 -46 41 -67 1 -33 29 29 30
65 0 39 -25 92 -44 92 -21 0 -27 -12 -13 -28 10 -13 9 -15 -7 -9 -12 5 -26 1
-37 -9 -18 -16 -20 -16 -39 1 -20 18 -21 18 -35 -1 -19 -26 -19 -63 2 -86 23
-26 33 -22 33 12 0 26 3 30 28 29 16 -1 20 -3 10 -6 -23 -6 -23 -23 -1 -23 15
0 14 -2 -3 -14 -24 -18 -13 -31 14 -17 12 6 27 11 34 11 20 -1 -23 -30 -43
-30 -10 0 -19 -4 -21 -10 -5 -15 -68 39 -79 68 -7 19 -5 34 10 64 19 39 12 59
-13 39 -29 -24 -40 -69 -27 -112 15 -49 8 -64 -8 -18 -20 57 -12 97 27 142 17
19 33 22 48 8z m-28 -41 c-7 -11 -16 -20 -21 -20 -4 0 -3 9 3 20 6 11 15 20
20 20 6 0 5 -9 -2 -20z m58 -48 c-9 -2 -16 -12 -16 -23 0 -18 -2 -19 -15 -5
-18 18 -19 38 -3 54 9 9 16 8 31 -6 17 -15 17 -17 3 -20z"/>
<path d="M2700 705 c0 -16 16 -20 24 -6 3 5 -1 11 -9 15 -9 3 -15 0 -15 -9z"/>
<path d="M3710 5888 c0 -36 0 -2864 0 -2870 0 -4 26 8 58 26 179 104 418 175
669 198 492 45 893 -157 1097 -552 55 -107 100 -234 123 -347 21 -109 23 -342
4 -428 -81 -360 -315 -665 -623 -810 -170 -80 -410 -120 -575 -96 -192 27
-405 123 -670 302 -40 27 -76 49 -80 49 -4 0 -7 -136 -6 -302 l1 -303 48 -37
c100 -78 337 -192 519 -252 249 -81 457 -110 740 -103 231 5 287 14 470 75
535 176 951 668 1065 1258 111 574 -45 1105 -440 1504 -306 309 -681 485
-1130 531 -117 12 -323 6 -392 -10 -20 -5 -39 -6 -42 -3 -4 3 -6 408 -6 899
l0 894 523 -3 c517 -3 523 -4 592 -27 176 -59 326 -161 431 -295 64 -81 128
-198 158 -289 19 -57 46 -206 46 -253 l0 -34 95 0 95 0 -2 643 -3 642 -1382 3
c-1103 2 -1383 0 -1383 -10z m1500 -4993 c22 -14 40 -32 40 -41 0 -8 -4 -12
-10 -9 -5 3 -10 13 -10 21 0 8 -5 14 -11 14 -5 0 -7 -4 -4 -10 3 -5 1 -10 -5
-10 -7 0 -14 9 -17 19 -7 27 -30 34 -42 13 -6 -10 -11 -12 -11 -4 0 20 -28 14
-35 -8 -7 -22 -25 -28 -25 -8 0 6 -3 8 -7 4 -5 -4 -8 -13 -8 -18 0 -6 -5 -13
-12 -15 -7 -3 -9 3 -6 17 6 22 70 58 106 59 9 1 35 -10 57 -24z m-14 -54 c7
-1 14 -9 16 -18 4 -16 -4 -18 -68 -18 -78 0 -83 3 -32 16 31 8 31 8 -9 5 -24
-2 -40 1 -37 6 3 4 10 6 15 3 5 -4 9 -3 9 2 0 7 38 8 106 4z m39 -11 c3 -5 1
-10 -4 -10 -6 0 -11 5 -11 10 0 6 2 10 4 10 3 0 8 -4 11 -10z m-7 -50 c100
-61 105 -201 10 -266 -112 -78 -259 10 -246 147 11 111 141 176 236 119z"/>
<path d="M5178 823 c7 -3 16 -2 19 1 4 3 -2 6 -13 5 -11 0 -14 -3 -6 -6z"/>
<path d="M5090 774 c-71 -29 -105 -127 -70 -199 46 -92 187 -101 246 -16 54
76 23 180 -63 217 -40 17 -68 17 -113 -2z m4 -29 c7 -20 84 -20 106 0 16 14
20 13 49 -20 34 -39 41 -91 19 -140 -18 -41 -28 -29 -11 15 13 33 14 47 4 80
-12 41 -44 69 -56 50 -4 -6 -1 -18 6 -26 11 -13 9 -14 -13 -9 -42 11 -41 -18
2 -60 28 -27 37 -44 36 -66 -2 -34 -24 -53 -43 -37 -19 15 -16 25 8 31 25 7
22 43 -4 41 -11 -1 -17 5 -17 18 0 21 -56 78 -77 78 -7 0 -13 -2 -13 -4 0 -2
-3 -13 -6 -23 -6 -16 -5 -16 9 2 15 20 16 20 34 1 13 -13 15 -20 6 -23 -7 -3
-13 -14 -13 -26 -1 -22 -1 -22 -21 2 -26 32 -38 18 -13 -16 29 -39 44 -40 44
-4 0 26 4 31 23 30 21 0 21 -1 2 -9 -20 -8 -20 -8 -1 -16 17 -7 17 -8 3 -13
-10 -4 -13 -11 -9 -18 6 -10 14 -9 35 2 15 7 27 10 27 4 0 -5 -17 -17 -37 -27
l-38 -18 -37 35 c-41 37 -48 68 -23 111 31 54 7 71 -25 18 -21 -35 -27 -103
-10 -113 6 -3 10 -14 10 -23 -1 -12 -5 -10 -14 8 -28 50 -24 109 10 149 29 35
39 38 48 16z m-24 -46 c-7 -11 -14 -19 -16 -16 -7 7 7 37 17 37 6 0 5 -9 -1
-21z"/>
<path d="M5132 708 c6 -18 28 -21 28 -4 0 9 -7 16 -16 16 -9 0 -14 -5 -12 -12z"/>
</g>
</svg>
